<?xml version="1.0" standalone="no"?>
<!DOCTYPE svg PUBLIC "-//W3C//DTD SVG 20010904//EN"
 "http://www.w3.org/TR/2001/REC-SVG-20010904/DTD/svg10.dtd">
<svg version="1.0" xmlns="http://www.w3.org/2000/svg"
 width="1024.000000pt" height="1536.000000pt" viewBox="0 0 1024.000000 1536.000000"
 preserveAspectRatio="xMidYMid meet">

<g transform="translate(0.000000,1536.000000) scale(0.100000,-0.100000)"
fill="#000000" stroke="none">
<path d="M5850 11654 c-31 -8 -501 -66 -1200 -149 -1332 -158 -1596 -192
-1648 -215 -83 -37 -146 -113 -182 -221 -28 -80 -25 -134 24 -569 19 -173 47
-418 61 -545 14 -126 40 -365 59 -530 20 -165 44 -383 56 -485 11 -102 32
-284 46 -405 13 -121 38 -341 54 -490 26 -231 74 -651 110 -968 20 -165 71
-252 183 -306 43 -21 84 -33 133 -37 l71 -7 5 99 c3 55 4 100 3 102 -1 1 -26
6 -54 11 -61 10 -106 47 -121 101 -6 19 -42 312 -80 650 -39 338 -79 687 -90
775 -10 88 -26 228 -35 310 -25 238 -82 739 -130 1135 -24 201 -51 444 -60
540 -9 96 -25 246 -35 333 -11 86 -20 172 -20 191 0 40 34 94 75 118 29 16
259 47 1135 153 69 9 361 44 650 80 924 113 1057 127 1088 111 70 -37 102
-103 102 -213 0 -43 3 -95 6 -115 l7 -38 98 0 99 0 0 118 c0 178 -33 277 -119
355 -88 79 -219 129 -291 111z"/>
<path d="M4113 11015 c-94 -29 -188 -107 -219 -181 -28 -67 -34 -136 -49 -589
-8 -253 -27 -739 -40 -1080 -29 -727 -86 -2316 -88 -2460 -1 -83 3 -110 22
-159 44 -110 150 -187 283 -206 35 -5 223 -14 418 -20 721 -22 1609 -55 2081
-76 355 -15 424 -13 499 19 57 25 116 73 151 123 64 93 67 112 79 450 5 170
17 478 25 684 8 206 22 562 30 790 9 228 24 642 35 920 35 909 42 1163 39
1310 -4 126 -7 151 -27 191 -33 68 -107 137 -187 174 l-70 33 -300 11 c-165 6
-457 16 -650 21 -415 12 -806 25 -1383 45 -504 18 -594 18 -649 0z m697 -205
c124 -6 450 -17 725 -25 940 -28 1537 -55 1566 -71 38 -19 67 -59 75 -102 4
-19 -3 -299 -15 -621 -12 -322 -26 -714 -31 -871 -6 -157 -17 -458 -25 -670
-8 -212 -19 -529 -25 -705 -19 -556 -40 -1078 -46 -1138 -7 -63 -31 -107 -77
-141 -27 -20 -39 -21 -250 -19 -122 2 -478 12 -792 23 -313 11 -763 27 -1000
35 -236 8 -531 20 -655 25 -256 12 -280 19 -317 85 -29 51 -29 94 -3 784 19
493 25 654 50 1271 5 135 14 380 20 545 12 354 48 1266 56 1414 6 101 7 104
41 142 20 22 49 43 67 49 32 10 238 7 636 -10z"/>
<path d="M5405 9779 c-44 -5 -93 -15 -109 -21 l-29 -12 7 -95 c11 -149 6 -143
85 -134 36 5 130 7 209 6 78 -1 142 1 142 3 0 2 7 50 15 106 9 56 14 107 11
114 -4 10 -97 27 -216 38 -19 2 -71 0 -115 -5z"/>
<path d="M5830 9610 c-29 -61 -51 -112 -49 -113 2 -2 38 -24 79 -49 41 -26
126 -88 188 -138 l114 -91 86 73 c47 41 87 79 89 84 7 20 -140 165 -220 218
-67 44 -216 126 -230 126 -2 0 -27 -50 -57 -110z"/>
<path d="M5002 9651 c-125 -67 -235 -158 -325 -272 l-37 -46 95 -77 95 -77 61
65 c68 73 174 156 261 205 l57 32 -40 72 c-22 40 -47 87 -56 105 -9 17 -21 32
-27 32 -6 0 -44 -18 -84 -39z"/>
<path d="M5315 9400 c-327 -88 -541 -406 -496 -739 23 -172 83 -293 206 -416
141 -141 263 -195 462 -203 110 -4 130 -2 215 22 127 37 208 84 298 175 84 85
146 191 176 301 24 88 24 271 1 360 -66 244 -262 438 -505 501 -100 25 -260
25 -357 -1z"/>
<path d="M6318 9205 l-107 -54 29 -59 c58 -121 74 -195 74 -342 0 -146 -12
-209 -64 -331 l-28 -66 67 -38 c36 -22 85 -50 109 -63 l42 -24 41 87 c22 48
52 135 66 194 23 97 25 119 20 256 -4 123 -10 166 -31 240 -29 96 -94 255
-105 254 -3 0 -54 -24 -113 -54z"/>
<path d="M4551 9158 c-69 -152 -84 -220 -89 -403 -3 -148 -1 -181 17 -258 21
-88 75 -232 91 -242 5 -3 56 18 115 47 80 40 104 56 99 68 -98 230 -109 442
-34 659 16 47 27 88 24 93 -6 9 -178 98 -189 98 -4 0 -19 -28 -34 -62z"/>
<path d="M4735 8206 l-89 -83 42 -51 c71 -84 182 -182 261 -227 72 -43 179
-91 184 -84 2 2 24 51 49 109 l47 105 -96 49 c-72 37 -116 69 -182 132 -48 45
-93 94 -100 108 -8 14 -17 26 -20 26 -3 0 -46 -38 -96 -84z"/>
<path d="M6140 8219 c-64 -76 -165 -156 -251 -198 l-76 -37 59 -104 c33 -58
61 -106 63 -108 7 -7 159 79 213 121 61 46 202 194 202 211 0 11 -150 166
-161 166 -3 0 -25 -23 -49 -51z"/>
<path d="M5320 7946 c0 -3 -14 -53 -31 -112 -17 -61 -27 -110 -22 -115 13 -13
144 -28 242 -29 89 0 251 17 270 29 8 5 2 39 -20 117 -17 60 -32 110 -34 112
-1 1 -31 -4 -66 -13 -98 -23 -224 -19 -321 11 -10 3 -18 3 -18 0z"/>
<path d="M1745 5666 c-59 -18 -88 -41 -116 -88 -24 -43 -24 -43 -24 -348 l0
-305 25 -44 c46 -82 169 -120 282 -87 105 30 154 118 146 266 l-3 65 -71 3
-72 3 -3 -85 c-5 -101 -20 -126 -80 -126 -68 0 -69 7 -69 316 l0 273 27 21
c20 16 36 20 58 16 49 -10 60 -29 62 -109 l2 -72 73 0 73 0 -1 85 c0 58 -6 95
-17 116 -46 90 -180 135 -292 100z"/>
<path d="M2305 5671 c-77 -20 -126 -64 -146 -130 -7 -23 -9 -142 -7 -332 l3
-296 28 -42 c70 -105 284 -122 374 -29 52 54 63 100 63 274 l0 154 -110 0
-110 0 0 -63 0 -63 35 4 35 4 0 -100 c0 -97 -1 -101 -26 -121 -15 -12 -39 -21
-54 -21 -15 0 -39 9 -54 21 l-26 20 0 275 0 275 25 24 c15 16 36 25 55 25 19
0 40 -9 55 -25 22 -21 25 -33 25 -90 l0 -65 75 0 75 0 0 64 c0 152 -70 230
-217 240 -37 3 -81 2 -98 -3z"/>
<path d="M3737 5666 c-65 -18 -97 -43 -124 -96 -22 -43 -23 -53 -23 -335 0
-260 2 -294 19 -331 26 -57 83 -101 150 -115 141 -29 271 31 301 139 13 49 13
555 -1 605 -14 50 -60 101 -111 121 -57 23 -153 29 -211 12z m154 -142 c18
-16 19 -36 19 -291 l0 -274 -25 -24 c-15 -16 -36 -25 -55 -25 -19 0 -40 9 -55
25 l-25 24 0 271 0 271 26 26 c21 21 32 24 61 20 20 -4 44 -14 54 -23z"/>
<path d="M8882 5666 c-62 -21 -89 -41 -113 -88 -18 -35 -21 -54 -17 -122 6
-109 26 -143 143 -251 106 -97 135 -142 135 -208 0 -54 -22 -77 -72 -77 -49 0
-63 21 -65 99 l-1 66 -74 0 -73 0 -3 -48 c-8 -127 39 -215 131 -242 126 -37
249 1 296 92 6 12 11 66 11 120 0 130 -21 177 -116 259 -151 131 -154 135
-154 197 0 49 3 59 24 72 32 21 75 10 87 -22 5 -13 9 -51 9 -84 l0 -59 78 0
77 0 -5 97 c-3 54 -10 107 -17 118 -17 30 -54 62 -85 74 -49 18 -150 22 -196
7z"/>
<path d="M1060 5600 l0 -70 80 0 80 0 0 -370 0 -370 80 0 80 0 0 370 0 370 80
0 80 0 0 70 0 70 -240 0 -240 0 0 -70z"/>
<path d="M3050 5600 l0 -70 80 0 80 0 0 -370 0 -370 80 0 80 0 0 370 0 370 80
0 80 0 0 70 0 70 -240 0 -240 0 0 -70z"/>
<path d="M4170 5318 c0 -364 4 -407 42 -461 43 -60 160 -91 258 -67 65 15 123
68 139 125 7 26 11 167 11 398 l0 357 -75 0 -75 0 0 -358 0 -359 -23 -21 c-27
-26 -64 -28 -95 -6 l-22 15 0 365 0 364 -80 0 -80 0 0 -352z"/>
<path d="M4735 5661 c-3 -2 -5 -199 -5 -438 l0 -433 85 0 85 0 0 190 0 190 49
0 c77 0 81 -10 81 -212 l0 -168 83 0 82 0 -3 132 c-4 187 -16 265 -43 294 -12
13 -28 24 -36 24 -20 0 -15 14 9 25 12 6 31 23 42 38 18 25 21 43 21 141 -1
127 -15 165 -75 200 -31 18 -53 21 -203 21 -92 1 -170 -1 -172 -4z m279 -143
c17 -24 23 -162 8 -185 -10 -16 -57 -33 -93 -33 l-29 0 0 120 0 120 49 0 c40
0 53 -4 65 -22z"/>
<path d="M5300 5230 l0 -440 71 0 72 0 -7 258 c-3 141 -8 275 -11 297 -2 22
40 -93 94 -255 l98 -295 76 -3 77 -3 0 441 0 440 -71 0 -72 0 7 -232 c3 -128
8 -249 11 -268 3 -19 -36 85 -87 232 l-93 268 -82 0 -83 0 0 -440z"/>
<path d="M5996 5643 c-3 -16 -37 -206 -76 -423 -38 -217 -72 -403 -74 -412 -4
-16 5 -18 74 -18 l78 0 7 85 7 85 78 0 77 0 14 -82 14 -83 84 -3 c82 -3 83 -3
78 20 -3 13 -40 211 -83 441 l-78 417 -97 0 -97 0 -6 -27z m104 -178 c0 -14 9
-80 19 -147 11 -68 23 -147 26 -175 l7 -53 -59 0 c-59 0 -60 0 -56 28 1 15 12
91 23 170 11 79 20 159 20 178 0 21 4 33 10 29 6 -3 10 -17 10 -30z"/>
<path d="M6430 5230 l0 -440 70 0 70 0 1 318 c1 239 4 305 11 267 6 -27 32
-151 59 -274 27 -123 49 -226 49 -227 0 -2 24 -4 54 -4 48 0 54 3 59 23 9 36
96 450 100 477 2 14 5 -111 6 -277 l1 -303 75 0 75 0 0 440 0 441 -112 -3
-112 -3 -46 -230 -46 -229 -49 232 -49 232 -108 0 -108 0 0 -440z"/>
<path d="M7170 5230 l0 -440 205 0 205 0 0 70 0 70 -125 0 -126 0 3 118 3 117
98 3 97 3 0 59 0 59 -97 3 -98 3 -3 113 -3 112 113 1 c62 1 116 1 121 0 4 0 7
33 7 74 l0 75 -200 0 -200 0 0 -440z"/>
<path d="M7660 5230 l0 -440 75 0 75 0 0 158 c0 145 -13 365 -25 437 -2 17 42
-109 98 -280 l103 -310 77 -3 77 -3 0 441 0 440 -70 0 -70 0 1 -152 c0 -84 4
-202 8 -263 5 -60 7 -111 6 -113 -2 -3 -130 370 -158 461 l-20 67 -89 0 -88 0
0 -440z"/>
<path d="M8210 5600 l0 -70 80 0 80 0 0 -370 0 -370 80 0 80 0 0 370 0 370 80
0 80 0 0 70 0 70 -240 0 -240 0 0 -70z"/>
<path d="M2707 5223 c-4 -3 -7 -33 -7 -65 l0 -58 165 0 165 0 0 65 0 65 -158
0 c-87 0 -162 -3 -165 -7z"/>
</g>
</svg>
